# xmcd
#
# Track frame offsets: 
#        150
#        14407
#        32082
#
# Disc length: 669 seconds
#
# Revision: 2
# Processed by: cddbd v1.5.2PL0 Copyright (c) Steve Scherf et al.
# Submitted via: ExactAudioCopyFreeDBPlugin 1.0
#
DISCID=1b029b03
DTITLE=Strawberry Flower - Pikmin Dance
DYEAR=2002
DGENRE=Soundtrack
TTITLE0=Techno De Pikmin (Song Of Love Techno Version)
TTITLE1=Pikmin March (Song Of Love March Version)
TTITLE2=Pikmin Ondo (Song Of Love Ondo Version)
EXTD=
EXTT0=
EXTT1=
EXTT2=
PLAYORDER=
